<svg width="63" height="25" viewBox="0 0 63 25" fill="none" xmlns="http://www.w3.org/2000/svg">
<path d="M0.632 17.408C0.632 21.312 3.832 24.384 8.76 24.384C13.848 24.384 16.76 21.12 16.76 17.632C16.76 15.296 15.512 13.856 13.848 12.8C14.072 12.544 16.376 10.016 16.376 7.2C16.376 3.264 13.24 0.895998 9.016 0.895998C4.024 0.895998 1.72 3.968 1.72 7.104C1.72 9.12 2.68 10.496 4.056 11.552C3.352 12.032 0.632 14.176 0.632 17.408ZM12.568 17.44C12.568 19.456 10.872 20.736 8.76 20.736C6.68 20.736 4.856 19.232 4.856 17.088C4.856 15.2 6.232 13.856 6.968 13.248C9.72 14.56 12.568 15.456 12.568 17.44ZM5.784 7.2C5.784 5.728 6.872 4.576 8.952 4.576C11 4.576 12.344 5.696 12.344 7.456C12.344 9.44 11.128 10.944 10.808 11.296C8.216 10.176 5.784 9.28 5.784 7.2ZM28.6105 24.384C34.8185 24.384 36.8665 19.136 36.8665 12.608C36.8665 6.08 34.8185 0.895998 28.6105 0.895998C22.4025 0.895998 20.3865 6.08 20.3865 12.608C20.3865 19.136 22.4025 24.384 28.6105 24.384ZM28.6105 20.608C25.5065 20.608 24.6105 17.088 24.6105 12.608C24.6105 8.192 25.5065 4.704 28.6105 4.704C31.7145 4.704 32.6105 8.192 32.6105 12.608C32.6105 17.088 31.7145 20.608 28.6105 20.608ZM45.1195 11.008C47.9995 11.008 50.3675 8.768 50.3675 5.952C50.3675 3.2 47.9995 0.895998 45.1195 0.895998C42.2395 0.895998 39.9035 3.2 39.9035 5.952C39.9035 8.768 42.2395 11.008 45.1195 11.008ZM40.7035 24H44.4475L61.8875 1.28H58.1435L40.7035 24ZM45.1195 8.064C43.9355 8.064 43.0075 7.136 43.0075 5.952C43.0075 4.8 43.9355 3.84 45.1195 3.84C46.3035 3.84 47.2635 4.8 47.2635 5.952C47.2635 7.136 46.3035 8.064 45.1195 8.064ZM52.3195 19.36C52.3195 22.144 54.6235 24.384 57.5355 24.384C60.4155 24.384 62.7515 22.144 62.7515 19.36C62.7515 16.608 60.4155 14.304 57.5355 14.304C54.6235 14.304 52.3195 16.608 52.3195 19.36ZM55.4235 19.328C55.4235 18.176 56.3515 17.216 57.5355 17.216C58.7195 17.216 59.6795 18.176 59.6795 19.328C59.6795 20.512 58.7195 21.44 57.5355 21.44C56.3515 21.44 55.4235 20.512 55.4235 19.328Z" fill="white"/>
</svg>
