<svg width="95" height="12" viewBox="0 0 95 12" fill="none" xmlns="http://www.w3.org/2000/svg">
<path d="M0.574 5.96C0.574 8.886 2.786 11.168 5.712 11.168C8.638 11.168 10.85 8.886 10.85 5.96C10.85 3.118 8.638 0.891999 5.712 0.891999C2.786 0.891999 0.574 3.118 0.574 5.96ZM2.436 5.96C2.436 4 3.892 2.544 5.712 2.544C7.532 2.544 8.988 4 8.988 5.96C8.988 8.004 7.532 9.516 5.712 9.516C3.892 9.516 2.436 8.004 2.436 5.96ZM14.0197 11H16.1197L18.6817 3.86H16.8057L15.3217 8.284C15.1817 8.704 15.0837 9.362 15.0697 9.362H15.0417C15.0277 9.362 14.9297 8.704 14.7897 8.284L13.3057 3.86H11.4297L14.0197 11ZM19.1655 7.43C19.1655 9.46 20.6355 11.168 23.0015 11.168C24.7795 11.168 25.8715 10.146 25.8715 10.146L25.1855 8.872C25.1855 8.872 24.2755 9.656 23.1275 9.656C22.0635 9.656 21.0975 9.012 20.9855 7.766H25.9135C25.9135 7.766 25.9555 7.29 25.9555 7.08C25.9555 5.19 24.8495 3.692 22.7915 3.692C20.6635 3.692 19.1655 5.232 19.1655 7.43ZM21.0415 6.548C21.2095 5.624 21.8395 5.064 22.7495 5.064C23.5335 5.064 24.1355 5.582 24.1635 6.548H21.0415ZM27.4214 11H29.1994V8.172C29.1994 7.752 29.2414 7.36 29.3534 7.01C29.6894 5.946 30.5434 5.512 31.2994 5.512C31.5374 5.512 31.7194 5.54 31.7194 5.54V3.79C31.7194 3.79 31.5654 3.762 31.3974 3.762C30.3054 3.762 29.4514 4.574 29.1294 5.596H29.1014C29.1014 5.596 29.1294 5.358 29.1294 5.092V3.86H27.4214V11ZM32.3155 8.942C32.3155 10.37 33.4635 11.168 34.7375 11.168C36.3615 11.168 36.9215 9.908 36.9075 9.908H36.9355C36.9355 9.908 36.9075 10.132 36.9075 10.412V11H38.5455V6.534C38.5455 4.728 37.4535 3.692 35.5775 3.692C33.8835 3.692 32.7775 4.574 32.7775 4.574L33.4495 5.848C33.4495 5.848 34.3875 5.162 35.4095 5.162C36.1935 5.162 36.7815 5.484 36.7815 6.422V6.52H36.5435C35.3815 6.52 32.3155 6.674 32.3155 8.942ZM34.1075 8.858C34.1075 7.864 35.5775 7.738 36.4875 7.738H36.7955V7.906C36.7955 8.774 36.1235 9.782 35.1855 9.782C34.4575 9.782 34.1075 9.334 34.1075 8.858ZM40.298 8.774C40.298 10.818 41.516 11.07 42.496 11.07C42.79 11.07 43.056 11.028 43.056 11.028V9.474C43.056 9.474 42.93 9.488 42.79 9.488C42.328 9.488 42.062 9.292 42.062 8.508V1.06H40.298V8.774ZM44.2765 8.774C44.2765 10.818 45.4945 11.07 46.4745 11.07C46.7685 11.07 47.0345 11.028 47.0345 11.028V9.474C47.0345 9.474 46.9085 9.488 46.7685 9.488C46.3065 9.488 46.0405 9.292 46.0405 8.508V1.06H44.2765V8.774ZM52.0373 11H53.8433V7.57H55.8733C57.7353 7.57 59.0373 6.226 59.0373 4.294C59.0373 2.362 57.7353 1.06 55.8733 1.06H52.0373V11ZM53.8433 6.002V2.614H55.5653C56.5873 2.614 57.2033 3.272 57.2033 4.294C57.2033 5.33 56.5873 6.002 55.5373 6.002H53.8433ZM59.755 8.942C59.755 10.37 60.903 11.168 62.177 11.168C63.801 11.168 64.361 9.908 64.347 9.908H64.375C64.375 9.908 64.347 10.132 64.347 10.412V11H65.985V6.534C65.985 4.728 64.893 3.692 63.017 3.692C61.323 3.692 60.217 4.574 60.217 4.574L60.889 5.848C60.889 5.848 61.827 5.162 62.849 5.162C63.633 5.162 64.221 5.484 64.221 6.422V6.52H63.983C62.821 6.52 59.755 6.674 59.755 8.942ZM61.547 8.858C61.547 7.864 63.017 7.738 63.927 7.738H64.235V7.906C64.235 8.774 63.563 9.782 62.625 9.782C61.897 9.782 61.547 9.334 61.547 8.858ZM67.2335 10.118C67.2335 10.118 68.2275 11.168 70.0055 11.168C71.6995 11.168 72.7355 10.216 72.7355 9.026C72.7355 6.73 69.2635 6.856 69.2635 5.848C69.2635 5.4 69.7115 5.204 70.1735 5.204C71.2655 5.204 71.9235 5.82 71.9235 5.82L72.5815 4.504C72.5815 4.504 71.7975 3.692 70.1875 3.692C68.6475 3.692 67.4575 4.462 67.4575 5.792C67.4575 8.088 70.9295 7.948 70.9295 9.012C70.9295 9.432 70.4955 9.656 69.9915 9.656C68.8295 9.656 68.0455 8.872 68.0455 8.872L67.2335 10.118ZM73.5635 10.118C73.5635 10.118 74.5575 11.168 76.3355 11.168C78.0295 11.168 79.0655 10.216 79.0655 9.026C79.0655 6.73 75.5935 6.856 75.5935 5.848C75.5935 5.4 76.0415 5.204 76.5035 5.204C77.5955 5.204 78.2535 5.82 78.2535 5.82L78.9115 4.504C78.9115 4.504 78.1275 3.692 76.5175 3.692C74.9775 3.692 73.7875 4.462 73.7875 5.792C73.7875 8.088 77.2595 7.948 77.2595 9.012C77.2595 9.432 76.8255 9.656 76.3215 9.656C75.1595 9.656 74.3755 8.872 74.3755 8.872L73.5635 10.118ZM79.9916 7.43C79.9916 9.46 81.4616 11.168 83.8276 11.168C85.6056 11.168 86.6976 10.146 86.6976 10.146L86.0116 8.872C86.0116 8.872 85.1016 9.656 83.9536 9.656C82.8896 9.656 81.9236 9.012 81.8116 7.766H86.7396C86.7396 7.766 86.7816 7.29 86.7816 7.08C86.7816 5.19 85.6756 3.692 83.6176 3.692C81.4896 3.692 79.9916 5.232 79.9916 7.43ZM81.8676 6.548C82.0356 5.624 82.6656 5.064 83.5756 5.064C84.3596 5.064 84.9616 5.582 84.9896 6.548H81.8676ZM87.7576 7.43C87.7576 9.642 88.9896 11.168 90.9216 11.168C92.5596 11.168 93.1616 9.95 93.1616 9.95H93.1896C93.1896 9.95 93.1616 10.146 93.1616 10.412V11H94.8416V1.06H93.0636V4.196C93.0636 4.42 93.0776 4.602 93.0776 4.602H93.0496C93.0496 4.602 92.5596 3.692 90.9916 3.692C89.1016 3.692 87.7576 5.162 87.7576 7.43ZM89.5496 7.43C89.5496 6.016 90.3616 5.218 91.3416 5.218C92.5316 5.218 93.1196 6.31 93.1196 7.416C93.1196 8.998 92.2516 9.67 91.3276 9.67C90.2776 9.67 89.5496 8.788 89.5496 7.43Z" fill="white"/>
</svg>
