<svg width="380" height="480" viewBox="0 0 380 480" fill="none" xmlns="http://www.w3.org/2000/svg">
<path fill-rule="evenodd" clip-rule="evenodd" d="M217.762 72.2902C221.209 84.9923 225.701 113.544 221.117 118.022H192.117C192.114 117.971 192.111 117.92 192.109 117.868C181.36 116.679 173 107.566 173 96.5V75.5C173 63.6259 182.626 54 194.5 54H196.5C207.283 54 216.212 61.9385 217.762 72.2902Z" fill="#191847"/>
<path fill-rule="evenodd" clip-rule="evenodd" d="M184.262 92.4901C179.654 87.0814 176.536 80.4529 177.057 73.0255C178.558 51.625 208.349 56.3328 214.143 67.1339C219.938 77.9351 219.25 105.333 211.76 107.263C208.774 108.033 202.411 106.147 195.935 102.244L200 131H176L184.262 92.4901Z" fill="#D4A181"/>
<path fill-rule="evenodd" clip-rule="evenodd" d="M190.75 88.8748C191.856 100.753 191.413 114.317 188.117 117.537H159.117C157.501 89.4635 173.117 100.335 173.117 73.9028C174.091 72.9515 175.011 72.01 175.921 71.1981L175.889 70.4207C180.911 60.1402 187.281 55 195.001 55C206.581 55 210.237 60.3883 213.349 64.9631C211.022 72.9482 201.99 74.1322 193.966 79.1095C193.02 78.341 191.814 77.8804 190.5 77.8804C187.462 77.8804 185 80.3428 185 83.3804C185 86.418 187.462 88.8804 190.5 88.8804C190.584 88.8804 190.667 88.8785 190.75 88.8748Z" fill="#191847"/>
<path fill-rule="evenodd" clip-rule="evenodd" d="M137.408 312.088C161.397 318.798 182.094 322.153 199.5 322.153C216.905 322.153 233.072 316.986 248 306.653C224.524 299.766 205.191 296.323 190 296.323C174.809 296.323 157.278 301.578 137.408 312.088Z" fill="#1F28CF"/>
<path fill-rule="evenodd" clip-rule="evenodd" d="M220.267 331.824C220.036 331.477 219.84 331.098 219.685 330.689C216.479 322.208 165.117 230.726 160 214H217.826C221.717 226.717 239.227 306.52 241.691 322.442C249.467 347.557 265.475 428.895 267.519 434.53C269.669 440.458 257.572 446.633 254.349 439.346C249.22 427.75 236.999 395.665 231.557 376.074C226.456 357.708 222.302 341.185 220.267 331.824Z" fill="#BA8B72"/>
<path fill-rule="evenodd" clip-rule="evenodd" d="M172.957 342.994C149.475 348.928 63.584 359.658 57.6898 361.341C51.6265 363.072 46.3101 350.574 53.8047 347.867C65.7299 343.559 98.5891 333.606 118.512 329.544C134.536 326.277 149.159 323.611 158.976 322.05C158.145 294.473 154.343 228.294 156.835 214H208C205.61 227.707 185.41 327.718 181.656 337.729C180.464 341.302 176.909 342.882 172.957 342.994Z" fill="#D4A181"/>
<path fill-rule="evenodd" clip-rule="evenodd" d="M54.3489 344.539C51.2135 343.956 48.9158 343.793 47.4556 344.05C45.6797 344.363 43.1404 345.116 39.8377 346.309C40.201 348.369 43.4657 366.884 49.6318 401.854C54.6582 402.456 57.0875 401.168 56.9196 397.991C56.7517 394.814 56.6398 392.17 56.5837 390.059L63.5407 362.213C63.6746 361.677 63.3487 361.134 62.8129 361C62.8038 360.998 62.7946 360.996 62.7853 360.994L58.4672 360.044C56.6164 357.402 55.5322 355.181 55.2149 353.381C54.957 351.919 55.1915 349.795 55.9184 347.01L55.9184 347.01C56.1973 345.941 55.5571 344.849 54.4883 344.57C54.4422 344.558 54.3957 344.548 54.3489 344.539Z" fill="#E4E4E4"/>
<path fill-rule="evenodd" clip-rule="evenodd" d="M250.678 438.402C249.559 441.388 249 443.623 249 445.106C249 446.909 249.3 449.54 249.901 453C251.993 453 270.794 453 306.303 453C307.769 448.154 306.923 445.539 303.765 445.152C300.607 444.766 297.984 444.417 295.895 444.106L269.68 432.419C269.176 432.194 268.584 432.421 268.359 432.925C268.356 432.934 268.352 432.942 268.348 432.951L266.663 437.039C263.74 438.403 261.364 439.085 259.537 439.085C258.052 439.085 256.001 438.485 253.384 437.285L253.384 437.285C252.38 436.825 251.193 437.266 250.733 438.27C250.713 438.313 250.695 438.357 250.678 438.402Z" fill="#E4E4E4"/>
<path fill-rule="evenodd" clip-rule="evenodd" d="M157 214C179.547 207.549 200.88 207.549 221 214C228 245.937 245.009 258.613 248 307.579C214 324.473 172 295.53 137 312.005C127 288.961 141 233.465 157 214Z" fill="#2B44FF"/>
<path fill-rule="evenodd" clip-rule="evenodd" d="M254 174.311L293.483 168.925C301.381 164.532 308.647 161.558 315.281 160.003C317.148 159.948 320.117 160.627 315.693 164.315C311.269 168.003 306.78 172.083 307.569 174.051C308.357 176.02 312.471 175.287 313.153 178.315C313.607 180.333 306.93 180.661 293.121 179.299L261.084 192L254 174.311ZM129.97 183.45L151.867 183.532C127.856 237.566 115.336 265.857 114.308 268.406C111.994 274.14 116.891 282.874 118.985 287.567C112.165 290.619 112.891 279.317 104.288 283.319C96.4352 286.973 90.4617 293.592 81.389 287.994C80.2736 287.306 79.0513 284.715 82.0046 282.69C89.3623 277.645 99.9653 268.815 101.398 265.908C103.352 261.945 112.876 234.459 129.97 183.45Z" fill="#D4A181"/>
<path fill-rule="evenodd" clip-rule="evenodd" d="M189.949 114L207.094 115.142C211.317 153.343 234.316 177.473 285.811 169.304L292.652 218.499C244.523 224.719 202.313 205.45 193.662 153.278C191.423 139.773 189.655 125.718 189.949 114Z" fill="#AFB9C5"/>
<path fill-rule="evenodd" clip-rule="evenodd" d="M181.491 109.016L207.468 114.965C207.468 159.644 221.7 188.15 229 221H158.844C157.855 232.351 157.249 244.018 156.932 256H104.402C116.305 192.664 141.43 143.664 179.776 109H181.477L181.491 109.016Z" fill="#C5CFD6"/>
<path fill-rule="evenodd" clip-rule="evenodd" d="M169.912 157.259C168.104 185.101 169.168 206.347 173.102 221H158.844C160.801 198.514 164.256 177.267 169.912 157.259V157.259Z" fill="black" fill-opacity="0.1"/>
</svg>
