<svg width="44" height="44" viewBox="0 0 44 44" fill="none" xmlns="http://www.w3.org/2000/svg">
<path d="M22.0386 34.5318C22.8721 35.2599 23.9386 35.75 25.1478 35.75C27.1109 35.75 28.8733 34.5731 29.638 32.7516C29.6743 32.665 29.7596 32.5639 29.8804 32.5636L29.9459 32.5633C31.242 32.5633 32.4723 32.0607 33.4102 31.148C34.3649 30.2195 34.8906 28.9885 34.8906 27.6826C34.8906 26.8276 34.6264 25.9679 34.1236 25.1693C35.1169 24.1535 35.6641 22.8288 35.6641 21.4266C35.6641 20.1406 35.2011 18.8972 34.3606 17.9254C33.8124 17.2916 33.1266 16.8004 32.3649 16.4829C32.3853 16.3231 32.3974 16.1613 32.3984 15.9985C32.4041 14.9686 31.9993 13.9914 31.2591 13.2471C30.6129 12.5976 29.7549 12.1806 28.8475 12.0645C28.5148 10.0016 26.7333 8.42188 24.5926 8.42188C23.6432 8.42188 22.7419 8.72098 22.0007 9.27252C21.2591 8.72098 20.3578 8.42188 19.4084 8.42188C17.2818 8.42188 15.5097 9.99594 15.1602 12.0628C14.2774 12.1786 13.465 12.5774 12.8309 13.2149C12.0876 13.9622 11.6818 14.9525 11.6875 16.0032C11.6885 16.1542 11.6962 16.3029 11.7113 16.449C10.9188 16.7652 10.2057 17.2684 9.63943 17.923C8.79886 18.8952 8.33594 20.1386 8.33594 21.4246C8.33594 22.8933 8.92072 24.2256 9.86603 25.1985C9.42593 25.941 9.19531 26.7897 9.19531 27.6826C9.19531 30.3715 11.3753 32.5596 14.0551 32.5596H14.1434C14.2297 32.5596 14.3083 32.6156 14.3438 32.7026C15.0971 34.5539 16.8672 35.75 18.8532 35.75C20.3021 35.75 21.3179 35.2146 22.0386 34.5318ZM17.5276 31.4068C16.9636 30.0204 15.6363 29.1237 14.1475 29.1221H14.0551C13.271 29.1221 12.6328 28.4762 12.6328 27.6826C12.6328 27.3563 12.7295 27.0572 12.9128 26.8172C12.9262 26.7994 12.9373 26.7809 12.95 26.7628C13.1837 26.7944 13.422 26.8125 13.6641 26.8125C14.6134 26.8125 15.3828 26.0431 15.3828 25.0938C15.3828 24.1444 14.6134 23.375 13.6641 23.375C12.6217 23.375 11.7734 22.5002 11.7734 21.4246C11.7734 20.4877 12.4703 19.673 13.3945 19.5296C13.564 19.5034 13.7238 19.4524 13.8712 19.3823C13.945 19.3917 14.0189 19.3984 14.0931 19.3984C14.5691 19.3984 15.0431 19.2017 15.3825 18.8166C16.0106 18.1049 15.9427 17.0186 15.2311 16.3906C15.1666 16.3338 15.126 16.1784 15.1253 15.9844C15.1243 15.8514 15.1727 15.7353 15.2683 15.6389C15.3331 15.5742 15.4748 15.4651 15.7007 15.4651H15.8806C17.3443 15.4651 18.5353 14.2744 18.5353 12.8047C18.5353 12.3011 18.9435 11.8594 19.4084 11.8594C19.9063 11.8594 20.2819 12.2182 20.2819 12.6939V24.9219C20.2819 25.8712 21.0513 26.6406 22.0007 26.6406C22.95 26.6406 23.7194 25.8712 23.7194 24.9219V12.6939C23.7194 12.2182 24.0947 11.8594 24.5926 11.8594C25.0659 11.8594 25.4657 12.2733 25.4657 12.7691C25.4657 14.2576 26.6567 15.4688 28.121 15.4688H28.3285C28.5114 15.4688 28.6961 15.5443 28.822 15.6712C28.9149 15.7645 28.9616 15.8682 28.9609 15.9797C28.9599 16.1908 28.8404 16.3278 28.7693 16.3906C28.0576 17.0186 27.9894 18.1046 28.6175 18.8166C29.0099 19.2614 29.5813 19.4548 30.1285 19.3839C30.2762 19.4544 30.436 19.5051 30.6058 19.5316C31.5297 19.6747 32.2266 20.4894 32.2266 21.4266C32.2266 22.4827 31.3215 23.375 30.25 23.375C29.3007 23.375 28.5312 24.1444 28.5312 25.0938C28.5312 26.0431 29.3007 26.8125 30.25 26.8125C30.5182 26.8125 30.7838 26.7927 31.0449 26.7541C31.0597 26.7749 31.0724 26.7964 31.0882 26.8172C31.3235 27.1257 31.4531 27.4329 31.4531 27.6826C31.4531 28.4514 30.7488 29.1258 29.9388 29.1258L29.866 29.1261C28.3842 29.1325 27.0505 30.0331 26.4681 31.4212C26.2411 31.9627 25.7225 32.3125 25.1478 32.3125C24.3935 32.3125 23.8577 31.5169 23.6768 31.0587C23.5566 30.5508 23.2092 30.1033 22.6942 29.8784C22.4727 29.7814 22.2414 29.7354 22.0138 29.7347C21.9731 29.734 21.9319 29.7364 21.8906 29.7391C21.8798 29.7397 21.8687 29.7397 21.858 29.7404C21.7361 29.7505 21.614 29.7723 21.4928 29.8092C20.9379 29.9791 20.5327 30.4044 20.3635 30.9164C19.7603 32.2454 19.4084 32.3125 18.8532 32.3125C18.2718 32.3125 17.7515 31.957 17.5276 31.4068ZM39.4604 15.1096C39.0609 14.3257 39.3194 13.368 40.0667 12.9044L40.1281 12.8665C40.961 12.3498 42.0627 12.6486 42.5089 13.5211C42.524 13.5509 42.5394 13.5808 42.5545 13.6107C42.9966 14.4855 42.5881 15.5517 41.68 15.9199L41.6129 15.9471C40.7982 16.2774 39.8723 15.9216 39.4745 15.1374C39.4698 15.128 39.4651 15.119 39.4604 15.1096ZM35.8497 9.38666C35.2126 8.77905 35.139 7.78842 35.6916 7.10294L35.7356 7.04855C36.3506 6.28519 37.4896 6.20227 38.1996 6.87769C38.2237 6.90051 38.2479 6.92368 38.2717 6.9465C38.979 7.62527 38.9478 8.76663 38.2133 9.41586L38.1609 9.46219C37.5013 10.0453 36.5083 10.0171 35.8725 9.40848C35.8648 9.40109 35.8574 9.39404 35.8497 9.38666ZM29.4004 3.25555L29.4235 3.18976C29.7495 2.26492 30.7968 1.80704 31.6918 2.20853C31.7224 2.22229 31.7529 2.23605 31.7834 2.25015C32.6764 2.65567 33.0258 3.74365 32.5478 4.60001L32.5136 4.66077C32.0846 5.42917 31.1393 5.73163 30.3376 5.36874C30.3279 5.36438 30.3185 5.36002 30.3087 5.35565C29.5064 4.99445 29.108 4.08539 29.4004 3.25555ZM4.19583 28.9764C4.59531 29.7602 4.33682 30.718 3.58957 31.1815L3.52814 31.2195C2.69528 31.7361 1.59354 31.4373 1.1474 30.5649C1.13229 30.535 1.11685 30.5051 1.10175 30.4753C0.659637 29.6004 1.06818 28.5343 1.97623 28.166L2.04337 28.1388C2.85809 27.8085 3.78394 28.1643 4.18173 28.9485C4.18643 28.9579 4.19113 28.967 4.19583 28.9764ZM7.80655 34.6993C8.4437 35.3069 8.51721 36.2975 7.96466 36.983L7.92068 37.0374C7.30569 37.8008 6.16669 37.8837 5.4567 37.2083C5.43253 37.1854 5.40836 37.1623 5.38452 37.1394C4.67722 36.4607 4.70844 35.3193 5.44293 34.6701L5.4953 34.6237C6.15494 34.0406 7.14792 34.0688 7.78372 34.6775C7.79144 34.6848 7.79883 34.6919 7.80655 34.6993ZM14.2559 40.83L14.2327 40.8958C13.9068 41.821 12.8594 42.2789 11.9644 41.8771C11.9339 41.8633 11.9034 41.8495 11.8728 41.8358C10.9799 41.4303 10.6304 40.3423 11.1084 39.4859L11.1427 39.4248C11.5717 38.6564 12.517 38.3543 13.3186 38.7172C13.3284 38.7216 13.3378 38.7259 13.3475 38.7303C14.1498 39.0915 14.5483 40.0005 14.2559 40.83ZM1.71875 23.7188C0.769409 23.7188 0 22.9493 0 22C0 16.1237 2.28842 10.5988 6.44363 6.44363C10.5988 2.28842 16.1237 0 22 0C22.6241 0 23.2495 0.0265198 23.8712 0.078888C24.8685 0.162811 25.5751 1.09167 25.4076 2.07861C25.2582 2.95914 24.4593 3.57748 23.569 3.50296C23.0477 3.45932 22.5237 3.4375 22 3.4375C11.7647 3.4375 3.4375 11.7647 3.4375 22C3.4375 22.9493 2.66809 23.7188 1.71875 23.7188ZM44 22C44 27.8797 41.728 33.4032 37.603 37.5527C33.4696 41.7102 27.9589 44 22.0859 44C21.4622 44 20.8372 43.9735 20.2151 43.9214C19.2178 43.8372 18.5108 42.909 18.678 41.9221C18.8274 41.0412 19.6263 40.4225 20.5166 40.497C21.0382 40.5407 21.5626 40.5625 22.0859 40.5625C32.2739 40.5625 40.5625 32.2353 40.5625 22C40.5625 21.0507 41.3319 20.2812 42.2812 20.2812C43.2306 20.2812 44 21.0507 44 22Z" fill="white"/>
</svg>
